<svg xmlns="http://www.w3.org/2000/svg" xmlns:xlink="http://www.w3.org/1999/xlink" width="83.058mm" height="61.976mm" viewBox="4038 3624 327 244"><title></title><style type="text/css">
*[layerid="1"] {stroke:#FF0000;fill:#FF0000;}
*[layerid="2"] {stroke:#0000FF;fill:#0000FF;}
*[layerid="3"] {stroke:#FFCC00;fill:#FFCC00;}
*[layerid="4"] {stroke:#66CC33;fill:#66CC33;}
*[layerid="5"] {stroke:#808080;fill:#808080;}
*[layerid="6"] {stroke:#800000;fill:#800000;}
*[layerid="7"] {stroke:#800080;fill:#800080;stroke-opacity:0.7;fill-opacity:0.7;}
*[layerid="8"] {stroke:#AA00FF;fill:#AA00FF;stroke-opacity:0.7;fill-opacity:0.7;}
*[layerid="9"] {stroke:#6464FF;fill:#6464FF;}
*[layerid="10"] {stroke:#FF00FF;fill:#FF00FF;}
*[layerid="11"] {stroke:#C0C0C0;fill:#C0C0C0;}
*[layerid="12"] {stroke:#FFFFFF;fill:#FFFFFF;}
*[layerid="13"] {stroke:#33CC99;fill:#33CC99;}
*[layerid="14"] {stroke:#5555FF;fill:#5555FF;}
*[layerid="15"] {stroke:#F022F0;fill:#F022F0;}
*[layerid="19"] {stroke:#66CCFF;fill:#66CCFF;}
*[layerid="21"] {stroke:#999966;fill:#999966;}
*[layerid="22"] {stroke:#008000;fill:#008000;}
*[layerid="23"] {stroke:#00FF00;fill:#00FF00;}
*[layerid="24"] {stroke:#BC8E00;fill:#BC8E00;}
*[layerid="25"] {stroke:#70DBFA;fill:#70DBFA;}
*[layerid="26"] {stroke:#00CC66;fill:#00CC66;}
*[layerid="27"] {stroke:#9966FF;fill:#9966FF;}
*[layerid="28"] {stroke:#800080;fill:#800080;}
*[layerid="29"] {stroke:#008080;fill:#008080;}
*[layerid="30"] {stroke:#15935F;fill:#15935F;}
*[layerid="31"] {stroke:#000080;fill:#000080;}
*[layerid="32"] {stroke:#00B400;fill:#00B400;}
*[layerid="33"] {stroke:#2E4756;fill:#2E4756;}
*[layerid="34"] {stroke:#99842F;fill:#99842F;}
*[layerid="35"] {stroke:#FFFFAA;fill:#FFFFAA;}
*[layerid="36"] {stroke:#99842F;fill:#99842F;}
*[layerid="37"] {stroke:#2E4756;fill:#2E4756;}
*[layerid="38"] {stroke:#3535FF;fill:#3535FF;}
*[layerid="39"] {stroke:#8000BC;fill:#8000BC;}
*[layerid="40"] {stroke:#43AE5F;fill:#43AE5F;}
*[layerid="41"] {stroke:#C3ECCE;fill:#C3ECCE;}
*[layerid="42"] {stroke:#728978;fill:#728978;}
*[layerid="43"] {stroke:#39503F;fill:#39503F;}
*[layerid="44"] {stroke:#0C715D;fill:#0C715D;}
*[layerid="45"] {stroke:#5A8A80;fill:#5A8A80;}
*[layerid="46"] {stroke:#2B937E;fill:#2B937E;}
*[layerid="47"] {stroke:#23999D;fill:#23999D;}
*[layerid="48"] {stroke:#45B4E3;fill:#45B4E3;}
*[layerid="49"] {stroke:#215DA1;fill:#215DA1;}
*[layerid="50"] {stroke:#4564D7;fill:#4564D7;}
*[layerid="51"] {stroke:#6969E9;fill:#6969E9;}
*[layerid="52"] {stroke:#9069E9;fill:#9069E9;}
*[layerid="99"] {stroke:#00CCCC;fill:#00CCCC;}
*[layerid="100"] {stroke:#CC9999;fill:#CC9999;}
*[layerid="Hole"] {stroke:#222222;fill:#222222;}
*[layerid="DRCError"] {stroke:#FAD609;fill:#FAD609;}
*[fill="none"] {fill: none;}
*[stroke="none"] {stroke: none;}
path, polyline, polygon, line {stroke-linecap:round;}
g[c_partid="part_pad"][layerid="1"] ellipse:not([c_etype="pad_outer"]) {fill:#FF0000;}
g[c_partid="part_pad"][layerid="1"] polygon:not([c_etype="pad_outer"]) {fill:#FF0000;}
g[c_partid="part_pad"][layerid="1"] polyline:not([c_etype="pad_outer"]) {stroke:#FF0000;}
g[c_partid="part_pad"][layerid="2"] ellipse:not([c_etype="pad_outer"]) {fill:#0000FF;}
g[c_partid="part_pad"][layerid="2"] polygon:not([c_etype="pad_outer"]) {fill:#0000FF;}
g[c_partid="part_pad"][layerid="2"] polyline:not([c_etype="pad_outer"]) {stroke:#0000FF;}
g[c_partid="part_pad"][layerid="11"] ellipse:not([c_etype="pad_outer"]) {fill:#C0C0C0;}
g[c_partid="part_pad"][layerid="11"] polygon:not([c_etype="pad_outer"]) {fill:#C0C0C0;}
g[c_partid="part_pad"][layerid="11"] polyline:not([c_etype="pad_outer"]) {stroke:#C0C0C0;}
g[c_partid="part_pad"][layerid="11"] circle {fill:#222222;}
g[c_partid="part_pad"][layerid="11"] > polyline:nth-of-type(2) {stroke:#222222;}
g[c_partid="part_pad"][layerid="11"][c_shape="ELLIPSE"]  polyline:nth-last-of-type(1) {stroke:#222222;}
g[c_partid="part_pad"][layerid="11"][c_shape="RECT"]  polyline:nth-last-of-type(1) {stroke:#222222;}
g[c_partid="part_pad"][layerid="11"][c_shape="POLYGON"]  polyline:nth-last-of-type(1) {stroke:#222222;}
g[c_partid="part_via"] > * + circle, #gCurParts g[c_partid="part_via"] > * + circle {fill:#222222;}
g[c_partid="part_pad"] > polygon[c_etype="pad_outer"], #gCurParts g[c_partid="part_pad"] > polygon[c_etype="pad_outer"] {stroke-linejoin: miter;stroke-miterlimit: 100;}
g[c_partid="part_hole"] > circle {fill: #222222;}path, polyline, polygon {stroke-linejoin:round;}
rect, circle, ellipse, polyline, line, polygon, path {shape-rendering:crispEdges;}
</style>
<rect x="4038" y="3624" width="327" height="244" fill="#000000" stroke="none"/><polyline points="4075 3783 4075 3803" stroke-width="1"  stroke-linecap="round" fill="none" layerid="2" net="GND" id="gge345" locked="0" /><polyline points="4165 3693 4165 3694.5 4230 3759.5" stroke-width="1"  stroke-linecap="round" fill="none" layerid="2" net="U4_2" id="gge344" locked="0" /><polyline points="4165 3733 4223.5 3733 4230 3739.5" stroke-width="1"  stroke-linecap="round" fill="none" layerid="1" net="GND" id="gge343" locked="0" /><polyline points="4062 3766.77 4062 3771 4056.5 3776.5 4056.5 3853.5 4344.5 3853.5 4344.5 3647.5 4339 3642 4182 3642 4182 3716 4165 3733" stroke-width="1"  stroke-linecap="round" fill="none" layerid="1" net="GND" id="gge342" locked="0" /><polyline points="4075 3803 4062 3803 4062 3766 4072 3766 4075 3763" stroke-width="1"  stroke-linecap="round" fill="none" layerid="1" net="GND" id="gge340" locked="0" /><polyline points="4230 3769.5 4230 3844 4062 3844 4062 3814 4074 3814 4075 3813" stroke-width="1"  stroke-linecap="round" fill="none" layerid="1" net="VR2_2" id="gge339" locked="0" /><polyline points="4312 3761.5 4304 3769.5 4230 3769.5" stroke-width="1"  stroke-linecap="round" fill="none" layerid="1" net="VR2_2" id="gge337" locked="0" /><polyline points="4261.5 3666 4261.5 3713 4305 3756.5" stroke-width="1"  stroke-linecap="round" fill="none" layerid="1" net="VR2_3" id="gge336" locked="0" /><polyline points="4239.5 3666 4239.5 3730 4230 3739.5" stroke-width="1"  stroke-linecap="round" fill="none" layerid="1" net="GND" id="gge335" locked="0" /><g c_partid="part_pad" c_etype="pinpart" c_origin="4230,3769.5" layerid="11" number="1" net="VR2_2" plated ="Y"  id="gge12" locked="0" c_rotation="270" c_width="5.1" c_height="5.1" title="VR2_2" c_shape="ELLIPSE" pasteexpansion="0" solderexpansion="0.4"><ellipse c_etype="pad_shell" cx="4230" cy="3769.5" rx="2.55" ry="2.55" layerid="11" stroke-width="0"/><circle c_etype="pad_hole" cx="4230" cy="3769.5" r="1.4" layerid="11" stroke-width="0"/></g><g c_partid="part_pad" c_etype="pinpart" c_origin="4230,3759.5" layerid="11" number="2" net="U4_2" plated ="Y"  id="gge17" locked="0" c_rotation="270" c_width="5.1" c_height="5.1" title="U4_2" c_shape="ELLIPSE" pasteexpansion="0" solderexpansion="0.4"><ellipse c_etype="pad_shell" cx="4230" cy="3759.5" rx="2.55" ry="2.55" layerid="11" stroke-width="0"/><circle c_etype="pad_hole" cx="4230" cy="3759.5" r="1.4" layerid="11" stroke-width="0"/></g><g c_partid="part_pad" c_etype="pinpart" c_origin="4230,3749.5" layerid="11" number="3" net="U4_3" plated ="Y"  id="gge22" locked="0" c_rotation="270" c_width="5.1" c_height="5.1" title="U4_3" c_shape="ELLIPSE" pasteexpansion="0" solderexpansion="0.4"><ellipse c_etype="pad_shell" cx="4230" cy="3749.5" rx="2.55" ry="2.55" layerid="11" stroke-width="0"/><circle c_etype="pad_hole" cx="4230" cy="3749.5" r="1.4" layerid="11" stroke-width="0"/></g><g c_partid="part_pad" c_etype="pinpart" c_origin="4230,3739.5" layerid="11" number="4" net="GND" plated ="Y"  id="gge27" locked="0" c_rotation="270" c_width="5.1" c_height="5.1" title="GND" c_shape="ELLIPSE" pasteexpansion="0" solderexpansion="0.4"><ellipse c_etype="pad_shell" cx="4230" cy="3739.5" rx="2.55" ry="2.55" layerid="11" stroke-width="0"/><circle c_etype="pad_hole" cx="4230" cy="3739.5" r="1.4" layerid="11" stroke-width="0"/></g><g c_partid="part_pad" c_etype="pinpart" c_origin="4075,3773" layerid="11" number="5" net="P1_5" plated ="Y"  id="gge116" locked="0" c_rotation="0" c_width="6" c_height="6" title="P1_5" c_shape="ELLIPSE" pasteexpansion="0" solderexpansion="0.4"><ellipse c_etype="pad_shell" cx="4075" cy="3773" rx="3" ry="3" layerid="11" stroke-width="0"/><circle c_etype="pad_hole" cx="4075" cy="3773" r="1.8" layerid="11" stroke-width="0"/></g><g c_partid="part_pad" c_etype="pinpart" c_origin="4165,3773" layerid="11" number="20" net="P1_20" plated ="Y"  id="gge121" locked="0" c_rotation="0" c_width="6" c_height="6" title="P1_20" c_shape="ELLIPSE" pasteexpansion="0" solderexpansion="0.4"><ellipse c_etype="pad_shell" cx="4165" cy="3773" rx="3" ry="3" layerid="11" stroke-width="0"/><circle c_etype="pad_hole" cx="4165" cy="3773" r="1.8" layerid="11" stroke-width="0"/></g><g c_partid="part_pad" c_etype="pinpart" c_origin="4075,3783" layerid="11" number="4" net="GND" plated ="Y"  id="gge126" locked="0" c_rotation="0" c_width="6" c_height="6" title="GND" c_shape="ELLIPSE" pasteexpansion="0" solderexpansion="0.4"><ellipse c_etype="pad_shell" cx="4075" cy="3783" rx="3" ry="3" layerid="11" stroke-width="0"/><circle c_etype="pad_hole" cx="4075" cy="3783" r="1.8" layerid="11" stroke-width="0"/></g><g c_partid="part_pad" c_etype="pinpart" c_origin="4075,3793" layerid="11" number="3" net="GND" plated ="Y"  id="gge131" locked="0" c_rotation="0" c_width="6" c_height="6" title="GND" c_shape="ELLIPSE" pasteexpansion="0" solderexpansion="0.4"><ellipse c_etype="pad_shell" cx="4075" cy="3793" rx="3" ry="3" layerid="11" stroke-width="0"/><circle c_etype="pad_hole" cx="4075" cy="3793" r="1.8" layerid="11" stroke-width="0"/></g><g c_partid="part_pad" c_etype="pinpart" c_origin="4165,3793" layerid="11" number="18" net="P1_18" plated ="Y"  id="gge136" locked="0" c_rotation="0" c_width="6" c_height="6" title="P1_18" c_shape="ELLIPSE" pasteexpansion="0" solderexpansion="0.4"><ellipse c_etype="pad_shell" cx="4165" cy="3793" rx="3" ry="3" layerid="11" stroke-width="0"/><circle c_etype="pad_hole" cx="4165" cy="3793" r="1.8" layerid="11" stroke-width="0"/></g><g c_partid="part_pad" c_etype="pinpart" c_origin="4165,3783" layerid="11" number="19" net="P1_19" plated ="Y"  id="gge141" locked="0" c_rotation="0" c_width="6" c_height="6" title="P1_19" c_shape="ELLIPSE" pasteexpansion="0" solderexpansion="0.4"><ellipse c_etype="pad_shell" cx="4165" cy="3783" rx="3" ry="3" layerid="11" stroke-width="0"/><circle c_etype="pad_hole" cx="4165" cy="3783" r="1.8" layerid="11" stroke-width="0"/></g><g c_partid="part_pad" c_etype="pinpart" c_origin="4075,3803" layerid="11" number="2" net="GND" plated ="Y"  id="gge146" locked="0" c_rotation="0" c_width="6" c_height="6" title="GND" c_shape="ELLIPSE" pasteexpansion="0" solderexpansion="0.4"><ellipse c_etype="pad_shell" cx="4075" cy="3803" rx="3" ry="3" layerid="11" stroke-width="0"/><circle c_etype="pad_hole" cx="4075" cy="3803" r="1.8" layerid="11" stroke-width="0"/></g><g c_partid="part_pad" c_etype="pinpart" c_origin="4165,3803" layerid="11" number="17" net="P1_17" plated ="Y"  id="gge151" locked="0" c_rotation="0" c_width="6" c_height="6" title="P1_17" c_shape="ELLIPSE" pasteexpansion="0" solderexpansion="0.4"><ellipse c_etype="pad_shell" cx="4165" cy="3803" rx="3" ry="3" layerid="11" stroke-width="0"/><circle c_etype="pad_hole" cx="4165" cy="3803" r="1.8" layerid="11" stroke-width="0"/></g><g c_partid="part_pad" c_etype="pinpart" c_origin="4075,3813" layerid="11" number="1" net="VR2_2" plated ="Y"  id="gge156" locked="0" c_rotation="0" c_width="6" c_height="6" title="VR2_2" c_shape="ELLIPSE" pasteexpansion="0" solderexpansion="0.4"><ellipse c_etype="pad_shell" cx="4075" cy="3813" rx="3" ry="3" layerid="11" stroke-width="0"/><circle c_etype="pad_hole" cx="4075" cy="3813" r="1.8" layerid="11" stroke-width="0"/></g><g c_partid="part_pad" c_etype="pinpart" c_origin="4165,3813" layerid="11" number="16" net="P1_16" plated ="Y"  id="gge161" locked="0" c_rotation="0" c_width="6" c_height="6" title="P1_16" c_shape="ELLIPSE" pasteexpansion="0" solderexpansion="0.4"><ellipse c_etype="pad_shell" cx="4165" cy="3813" rx="3" ry="3" layerid="11" stroke-width="0"/><circle c_etype="pad_hole" cx="4165" cy="3813" r="1.8" layerid="11" stroke-width="0"/></g><g c_partid="part_pad" c_etype="pinpart" c_origin="4075,3763" layerid="11" number="6" net="GND" plated ="Y"  id="gge166" locked="0" c_rotation="0" c_width="6" c_height="6" title="GND" c_shape="ELLIPSE" pasteexpansion="0" solderexpansion="0.4"><ellipse c_etype="pad_shell" cx="4075" cy="3763" rx="3" ry="3" layerid="11" stroke-width="0"/><circle c_etype="pad_hole" cx="4075" cy="3763" r="1.8" layerid="11" stroke-width="0"/></g><g c_partid="part_pad" c_etype="pinpart" c_origin="4165,3763" layerid="11" number="21" net="P1_21" plated ="Y"  id="gge171" locked="0" c_rotation="0" c_width="6" c_height="6" title="P1_21" c_shape="ELLIPSE" pasteexpansion="0" solderexpansion="0.4"><ellipse c_etype="pad_shell" cx="4165" cy="3763" rx="3" ry="3" layerid="11" stroke-width="0"/><circle c_etype="pad_hole" cx="4165" cy="3763" r="1.8" layerid="11" stroke-width="0"/></g><g c_partid="part_pad" c_etype="pinpart" c_origin="4075,3753" layerid="11" number="7" net="P1_7" plated ="Y"  id="gge176" locked="0" c_rotation="0" c_width="6" c_height="6" title="P1_7" c_shape="ELLIPSE" pasteexpansion="0" solderexpansion="0.4"><ellipse c_etype="pad_shell" cx="4075" cy="3753" rx="3" ry="3" layerid="11" stroke-width="0"/><circle c_etype="pad_hole" cx="4075" cy="3753" r="1.8" layerid="11" stroke-width="0"/></g><g c_partid="part_pad" c_etype="pinpart" c_origin="4165,3753" layerid="11" number="22" net="P1_22" plated ="Y"  id="gge181" locked="0" c_rotation="0" c_width="6" c_height="6" title="P1_22" c_shape="ELLIPSE" pasteexpansion="0" solderexpansion="0.4"><ellipse c_etype="pad_shell" cx="4165" cy="3753" rx="3" ry="3" layerid="11" stroke-width="0"/><circle c_etype="pad_hole" cx="4165" cy="3753" r="1.8" layerid="11" stroke-width="0"/></g><g c_partid="part_pad" c_etype="pinpart" c_origin="4165,3743" layerid="11" number="23" net="P1_23" plated ="Y"  id="gge186" locked="0" c_rotation="0" c_width="6" c_height="6" title="P1_23" c_shape="ELLIPSE" pasteexpansion="0" solderexpansion="0.4"><ellipse c_etype="pad_shell" cx="4165" cy="3743" rx="3" ry="3" layerid="11" stroke-width="0"/><circle c_etype="pad_hole" cx="4165" cy="3743" r="1.8" layerid="11" stroke-width="0"/></g><g c_partid="part_pad" c_etype="pinpart" c_origin="4075,3743" layerid="11" number="8" net="P1_8" plated ="Y"  id="gge191" locked="0" c_rotation="0" c_width="6" c_height="6" title="P1_8" c_shape="ELLIPSE" pasteexpansion="0" solderexpansion="0.4"><ellipse c_etype="pad_shell" cx="4075" cy="3743" rx="3" ry="3" layerid="11" stroke-width="0"/><circle c_etype="pad_hole" cx="4075" cy="3743" r="1.8" layerid="11" stroke-width="0"/></g><g c_partid="part_pad" c_etype="pinpart" c_origin="4075,3733" layerid="11" number="9" net="P1_9" plated ="Y"  id="gge196" locked="0" c_rotation="0" c_width="6" c_height="6" title="P1_9" c_shape="ELLIPSE" pasteexpansion="0" solderexpansion="0.4"><ellipse c_etype="pad_shell" cx="4075" cy="3733" rx="3" ry="3" layerid="11" stroke-width="0"/><circle c_etype="pad_hole" cx="4075" cy="3733" r="1.8" layerid="11" stroke-width="0"/></g><g c_partid="part_pad" c_etype="pinpart" c_origin="4075,3723" layerid="11" number="10" net="P1_10" plated ="Y"  id="gge201" locked="0" c_rotation="0" c_width="6" c_height="6" title="P1_10" c_shape="ELLIPSE" pasteexpansion="0" solderexpansion="0.4"><ellipse c_etype="pad_shell" cx="4075" cy="3723" rx="3" ry="3" layerid="11" stroke-width="0"/><circle c_etype="pad_hole" cx="4075" cy="3723" r="1.8" layerid="11" stroke-width="0"/></g><g c_partid="part_pad" c_etype="pinpart" c_origin="4075,3713" layerid="11" number="11" net="P1_11" plated ="Y"  id="gge206" locked="0" c_rotation="0" c_width="6" c_height="6" title="P1_11" c_shape="ELLIPSE" pasteexpansion="0" solderexpansion="0.4"><ellipse c_etype="pad_shell" cx="4075" cy="3713" rx="3" ry="3" layerid="11" stroke-width="0"/><circle c_etype="pad_hole" cx="4075" cy="3713" r="1.8" layerid="11" stroke-width="0"/></g><g c_partid="part_pad" c_etype="pinpart" c_origin="4075,3703" layerid="11" number="12" net="P1_12" plated ="Y"  id="gge211" locked="0" c_rotation="0" c_width="6" c_height="6" title="P1_12" c_shape="ELLIPSE" pasteexpansion="0" solderexpansion="0.4"><ellipse c_etype="pad_shell" cx="4075" cy="3703" rx="3" ry="3" layerid="11" stroke-width="0"/><circle c_etype="pad_hole" cx="4075" cy="3703" r="1.8" layerid="11" stroke-width="0"/></g><g c_partid="part_pad" c_etype="pinpart" c_origin="4075,3693" layerid="11" number="13" net="P1_13" plated ="Y"  id="gge216" locked="0" c_rotation="0" c_width="6" c_height="6" title="P1_13" c_shape="ELLIPSE" pasteexpansion="0" solderexpansion="0.4"><ellipse c_etype="pad_shell" cx="4075" cy="3693" rx="3" ry="3" layerid="11" stroke-width="0"/><circle c_etype="pad_hole" cx="4075" cy="3693" r="1.8" layerid="11" stroke-width="0"/></g><g c_partid="part_pad" c_etype="pinpart" c_origin="4075,3683" layerid="11" number="14" net="P1_14" plated ="Y"  id="gge221" locked="0" c_rotation="0" c_width="6" c_height="6" title="P1_14" c_shape="ELLIPSE" pasteexpansion="0" solderexpansion="0.4"><ellipse c_etype="pad_shell" cx="4075" cy="3683" rx="3" ry="3" layerid="11" stroke-width="0"/><circle c_etype="pad_hole" cx="4075" cy="3683" r="1.8" layerid="11" stroke-width="0"/></g><g c_partid="part_pad" c_etype="pinpart" c_origin="4075,3673" layerid="11" number="15" net="P1_15" plated ="Y"  id="gge226" locked="0" c_rotation="0" c_width="6" c_height="6" title="P1_15" c_shape="ELLIPSE" pasteexpansion="0" solderexpansion="0.4"><ellipse c_etype="pad_shell" cx="4075" cy="3673" rx="3" ry="3" layerid="11" stroke-width="0"/><circle c_etype="pad_hole" cx="4075" cy="3673" r="1.8" layerid="11" stroke-width="0"/></g><g c_partid="part_pad" c_etype="pinpart" c_origin="4165,3673" layerid="11" number="30" net="P1_30" plated ="Y"  id="gge231" locked="0" c_rotation="0" c_width="6" c_height="6" title="P1_30" c_shape="ELLIPSE" pasteexpansion="0" solderexpansion="0.4"><ellipse c_etype="pad_shell" cx="4165" cy="3673" rx="3" ry="3" layerid="11" stroke-width="0"/><circle c_etype="pad_hole" cx="4165" cy="3673" r="1.8" layerid="11" stroke-width="0"/></g><g c_partid="part_pad" c_etype="pinpart" c_origin="4165,3683" layerid="11" number="29" net="P1_29" plated ="Y"  id="gge236" locked="0" c_rotation="0" c_width="6" c_height="6" title="P1_29" c_shape="ELLIPSE" pasteexpansion="0" solderexpansion="0.4"><ellipse c_etype="pad_shell" cx="4165" cy="3683" rx="3" ry="3" layerid="11" stroke-width="0"/><circle c_etype="pad_hole" cx="4165" cy="3683" r="1.8" layerid="11" stroke-width="0"/></g><g c_partid="part_pad" c_etype="pinpart" c_origin="4165,3693" layerid="11" number="28" net="U4_2" plated ="Y"  id="gge241" locked="0" c_rotation="0" c_width="6" c_height="6" title="U4_2" c_shape="ELLIPSE" pasteexpansion="0" solderexpansion="0.4"><ellipse c_etype="pad_shell" cx="4165" cy="3693" rx="3" ry="3" layerid="11" stroke-width="0"/><circle c_etype="pad_hole" cx="4165" cy="3693" r="1.8" layerid="11" stroke-width="0"/></g><g c_partid="part_pad" c_etype="pinpart" c_origin="4165,3703" layerid="11" number="27" net="P1_27" plated ="Y"  id="gge246" locked="0" c_rotation="0" c_width="6" c_height="6" title="P1_27" c_shape="ELLIPSE" pasteexpansion="0" solderexpansion="0.4"><ellipse c_etype="pad_shell" cx="4165" cy="3703" rx="3" ry="3" layerid="11" stroke-width="0"/><circle c_etype="pad_hole" cx="4165" cy="3703" r="1.8" layerid="11" stroke-width="0"/></g><g c_partid="part_pad" c_etype="pinpart" c_origin="4165,3713" layerid="11" number="26" net="P1_26" plated ="Y"  id="gge251" locked="0" c_rotation="0" c_width="6" c_height="6" title="P1_26" c_shape="ELLIPSE" pasteexpansion="0" solderexpansion="0.4"><ellipse c_etype="pad_shell" cx="4165" cy="3713" rx="3" ry="3" layerid="11" stroke-width="0"/><circle c_etype="pad_hole" cx="4165" cy="3713" r="1.8" layerid="11" stroke-width="0"/></g><g c_partid="part_pad" c_etype="pinpart" c_origin="4165,3723" layerid="11" number="25" net="P1_25" plated ="Y"  id="gge256" locked="0" c_rotation="0" c_width="6" c_height="6" title="P1_25" c_shape="ELLIPSE" pasteexpansion="0" solderexpansion="0.4"><ellipse c_etype="pad_shell" cx="4165" cy="3723" rx="3" ry="3" layerid="11" stroke-width="0"/><circle c_etype="pad_hole" cx="4165" cy="3723" r="1.8" layerid="11" stroke-width="0"/></g><g c_partid="part_pad" c_etype="pinpart" c_origin="4165,3733" layerid="11" number="24" net="GND" plated ="Y"  id="gge261" locked="0" c_rotation="0" c_width="6" c_height="6" title="GND" c_shape="ELLIPSE" pasteexpansion="0" solderexpansion="0.4"><ellipse c_etype="pad_shell" cx="4165" cy="3733" rx="3" ry="3" layerid="11" stroke-width="0"/><circle c_etype="pad_hole" cx="4165" cy="3733" r="1.8" layerid="11" stroke-width="0"/></g><g c_partid="part_pad" c_etype="pinpart" c_origin="4261.5,3666" layerid="11" number="1" net="VR2_3" plated ="Y"  id="gge279" locked="0" c_rotation="180" c_width="17.7165" c_height="17.7165" title="VR2_3" c_shape="ELLIPSE" pasteexpansion="0" solderexpansion="0.4"><ellipse c_etype="pad_shell" cx="4261.5" cy="3666" rx="8.85825" ry="8.85825" layerid="11" stroke-width="0"/><circle c_etype="pad_hole" cx="4261.5" cy="3666" r="4.9213" layerid="11" stroke-width="0"/></g><g c_partid="part_pad" c_etype="pinpart" c_origin="4239.5,3666" layerid="11" number="2" net="GND" plated ="Y"  id="gge284" locked="0" c_rotation="180" c_width="17.7165" c_height="17.7165" title="GND" c_shape="ELLIPSE" pasteexpansion="0" solderexpansion="0.4"><ellipse c_etype="pad_shell" cx="4239.5" cy="3666" rx="8.85825" ry="8.85825" layerid="11" stroke-width="0"/><circle c_etype="pad_hole" cx="4239.5" cy="3666" r="4.9213" layerid="11" stroke-width="0"/></g><g c_partid="part_pad" c_etype="pinpart" c_origin="4298,3761.5" layerid="11" number="1" net="VR2_1" plated ="Y"  id="gge297" locked="0" c_rotation="0" c_width="6" c_height="6" title="VR2_1" c_shape="ELLIPSE" pasteexpansion="0" solderexpansion="0.4"><ellipse c_etype="pad_shell" cx="4298" cy="3761.5" rx="3" ry="3" layerid="11" stroke-width="0"/><circle c_etype="pad_hole" cx="4298" cy="3761.5" r="1.8" layerid="11" stroke-width="0"/></g><g c_partid="part_pad" c_etype="pinpart" c_origin="4312,3761.5" layerid="11" number="2" net="VR2_2" plated ="Y"  id="gge302" locked="0" c_rotation="0" c_width="6" c_height="6" title="VR2_2" c_shape="ELLIPSE" pasteexpansion="0" solderexpansion="0.4"><ellipse c_etype="pad_shell" cx="4312" cy="3761.5" rx="3" ry="3" layerid="11" stroke-width="0"/><circle c_etype="pad_hole" cx="4312" cy="3761.5" r="1.8" layerid="11" stroke-width="0"/></g><g c_partid="part_pad" c_etype="pinpart" c_origin="4305,3756.5" layerid="11" number="3" net="VR2_3" plated ="Y"  id="gge307" locked="0" c_rotation="0" c_width="6" c_height="6" title="VR2_3" c_shape="ELLIPSE" pasteexpansion="0" solderexpansion="0.4"><ellipse c_etype="pad_shell" cx="4305" cy="3756.5" rx="3" ry="3" layerid="11" stroke-width="0"/><circle c_etype="pad_hole" cx="4305" cy="3756.5" r="1.8" layerid="11" stroke-width="0"/></g><g c_partid="part_hole" c_etype="pinpart" c_shapetype="group" c_origin="4162.5,3660.5" layerid="11" id="gge42" locked="0" ><circle cx="4162.5" cy="3660.5" r="4"  stroke-width="0" /></g><g c_partid="part_hole" c_etype="pinpart" c_shapetype="group" c_origin="4077.5,3660.5" layerid="11" id="gge46" locked="0" ><circle cx="4077.5" cy="3660.5" r="4"  stroke-width="0" /></g><g c_partid="part_hole" c_etype="pinpart" c_shapetype="group" c_origin="4077.5,3825.5" layerid="11" id="gge50" locked="0" ><circle cx="4077.5" cy="3825.5" r="4"  stroke-width="0" /></g><g c_partid="part_hole" c_etype="pinpart" c_shapetype="group" c_origin="4162.5,3825.5" layerid="11" id="gge54" locked="0" ><circle cx="4162.5" cy="3825.5" r="4"  stroke-width="0" /></g><polyline points="4243.62 3729.66 4230 3729.66 4220.16 3729.66 4220.16 3739.5 4220.16 3779.34 4230 3779.34 4243.62 3779.34" stroke-width="0.8"  stroke-linecap="round" fill="none" layerid="3" net="" id="gge7" locked="0" /><polyline points="4243.78 3779.34 4243.78 3739.5 4243.78 3729.66" stroke-width="0.8"  stroke-linecap="round" fill="none" layerid="3" net="" id="gge8" locked="0" /><polyline points="4243.78 3762 4237.5 3762 4237.5 3767 4243.78 3767" stroke-width="0.8"  stroke-linecap="round" fill="none" layerid="3" net="" id="gge9" locked="0" /><polyline points="4243.78 3752 4237.5 3752 4237.5 3757 4243.78 3757" stroke-width="0.8"  stroke-linecap="round" fill="none" layerid="3" net="" id="gge10" locked="0" /><polyline points="4243.78 3742 4237.5 3742 4237.5 3747 4243.78 3747" stroke-width="0.8"  stroke-linecap="round" fill="none" layerid="3" net="" id="gge11" locked="0" /><polyline points="4075 3833 4165 3833 4170 3828 4170 3653 4165 3648 4075 3648 4070 3653 4070 3828 4075 3833 4080 3833" stroke-width="1"  stroke-linecap="round" fill="none" layerid="3" net="" id="gge38" locked="0" /><polyline points="4100 3668 4140 3668 4140 3653 4135 3653 4135 3663 4130 3663 4130 3653 4125 3653 4125 3663 4120 3663 4120 3653 4115 3653 4115 3663 4110 3663 4110 3653 4100 3653" stroke-width="1"  stroke-linecap="round" fill="none" layerid="3" net="" id="gge39" locked="0" /><polyline points="4273.5 3660 4269.5 3660" stroke-width="1.5748"  stroke-linecap="round" fill="none" layerid="3" net="" id="gge272" locked="0" /><polyline points="4271.5 3662 4271.5 3658" stroke-width="1.5748"  stroke-linecap="round" fill="none" layerid="3" net="" id="gge273" locked="0" /><polyline points="4231.5 3660 4227.5 3660" stroke-width="1.5748"  stroke-linecap="round" fill="none" layerid="3" net="" id="gge274" locked="0" /><polyline points="4275.5 3676 4225.5 3676" stroke-width="1.5748"  stroke-linecap="round" fill="none" layerid="3" net="" id="gge275" locked="0" /><polyline points="4275.5 3676 4275.5 3656" stroke-width="1.5748"  stroke-linecap="round" fill="none" layerid="3" net="" id="gge276" locked="0" /><polyline points="4275.5 3656 4225.5 3656" stroke-width="1.5748"  stroke-linecap="round" fill="none" layerid="3" net="" id="gge277" locked="0" /><polyline points="4225.5 3656 4225.5 3676" stroke-width="1.5748"  stroke-linecap="round" fill="none" layerid="3" net="" id="gge278" locked="0" /><polyline points="4294 3766.5 4317 3766.5" stroke-width="1"  stroke-linecap="round" fill="none" layerid="3" net="" id="gge296" locked="0" /><g c_partid="part_pcbtext" c_etype="" c_origin="4231.5,3721" c_rotation="0" c_mirror="0" id="gge3" locked="0" layerid="3" c_shapetype="group" display="none"><path c_fontsize="4.5" c_fontfamily="" c_text="DHT11" d="M 4231.5 3716.46 L 4231.5 3720.75 M 4231.5 3716.46 L 4232.93 3716.46 L 4233.55 3716.66 L 4233.95 3717.07 L 4234.16 3717.48 L 4234.36 3718.1 L 4234.36 3719.12 L 4234.16 3719.73 L 4233.95 3720.14 L 4233.55 3720.55 L 4232.93 3720.75 L 4231.5 3720.75 M 4235.71 3716.46 L 4235.71 3720.75 M 4238.58 3716.46 L 4238.58 3720.75 M 4235.71 3718.5 L 4238.58 3718.5 M 4241.36 3716.46 L 4241.36 3720.75 M 4239.93 3716.46 L 4242.79 3716.46 M 4244.14 3717.28 L 4244.55 3717.07 L 4245.16 3716.46 L 4245.16 3720.75 M 4246.51 3717.28 L 4246.92 3717.07 L 4247.54 3716.46 L 4247.54 3720.75" fill="none"  stroke-width="0.6" c_note="note_name" /></g><g c_partid="part_pcbtext" c_etype="" c_origin="4231.5,3728" c_rotation="0" c_mirror="0" id="gge5" locked="0" layerid="3" c_shapetype="group" ><path c_fontsize="4.5" c_fontfamily="" c_text="U4" d="M 4231.5 3723.46 L 4231.5 3726.53 L 4231.7 3727.14 L 4232.11 3727.55 L 4232.73 3727.75 L 4233.14 3727.75 L 4233.75 3727.55 L 4234.16 3727.14 L 4234.36 3726.53 L 4234.36 3723.46 M 4237.76 3723.46 L 4235.71 3726.32 L 4238.78 3726.32 M 4237.76 3723.46 L 4237.76 3727.75" fill="none"  stroke-width="0.6" c_note="note_pre" /></g><g c_partid="part_pcbtext" c_etype="" c_origin="4120,3640" c_rotation="0" c_mirror="0" id="gge34" locked="0" layerid="3" c_shapetype="group" display="none"><path c_fontsize="4.5" c_fontfamily="" c_text="ESP8266" d="M 4120 3635.46 L 4120 3639.75 M 4120 3635.46 L 4122.66 3635.46 M 4120 3637.5 L 4121.64 3637.5 M 4120 3639.75 L 4122.66 3639.75 M 4126.87 3636.07 L 4126.46 3635.66 L 4125.85 3635.46 L 4125.03 3635.46 L 4124.42 3635.66 L 4124.01 3636.07 L 4124.01 3636.48 L 4124.21 3636.89 L 4124.42 3637.1 L 4124.83 3637.3 L 4126.05 3637.71 L 4126.46 3637.91 L 4126.67 3638.12 L 4126.87 3638.53 L 4126.87 3639.14 L 4126.46 3639.55 L 4125.85 3639.75 L 4125.03 3639.75 L 4124.42 3639.55 L 4124.01 3639.14 M 4128.22 3635.46 L 4128.22 3639.75 M 4128.22 3635.46 L 4130.06 3635.46 L 4130.68 3635.66 L 4130.88 3635.87 L 4131.09 3636.28 L 4131.09 3636.89 L 4130.88 3637.3 L 4130.68 3637.5 L 4130.06 3637.71 L 4128.22 3637.71 M 4133.46 3635.46 L 4132.85 3635.66 L 4132.64 3636.07 L 4132.64 3636.48 L 4132.85 3636.89 L 4133.25 3637.1 L 4134.07 3637.3 L 4134.69 3637.5 L 4135.1 3637.91 L 4135.3 3638.32 L 4135.3 3638.94 L 4135.1 3639.35 L 4134.89 3639.55 L 4134.28 3639.75 L 4133.46 3639.75 L 4132.85 3639.55 L 4132.64 3639.35 L 4132.44 3638.94 L 4132.44 3638.32 L 4132.64 3637.91 L 4133.05 3637.5 L 4133.66 3637.3 L 4134.48 3637.1 L 4134.89 3636.89 L 4135.1 3636.48 L 4135.1 3636.07 L 4134.89 3635.66 L 4134.28 3635.46 L 4133.46 3635.46 M 4136.85 3636.48 L 4136.85 3636.28 L 4137.06 3635.87 L 4137.26 3635.66 L 4137.67 3635.46 L 4138.49 3635.46 L 4138.9 3635.66 L 4139.1 3635.87 L 4139.31 3636.28 L 4139.31 3636.69 L 4139.1 3637.1 L 4138.7 3637.71 L 4136.65 3639.75 L 4139.51 3639.75 M 4143.32 3636.07 L 4143.11 3635.66 L 4142.5 3635.46 L 4142.09 3635.46 L 4141.48 3635.66 L 4141.07 3636.28 L 4140.86 3637.3 L 4140.86 3638.32 L 4141.07 3639.14 L 4141.48 3639.55 L 4142.09 3639.75 L 4142.3 3639.75 L 4142.91 3639.55 L 4143.32 3639.14 L 4143.52 3638.53 L 4143.52 3638.32 L 4143.32 3637.71 L 4142.91 3637.3 L 4142.3 3637.1 L 4142.09 3637.1 L 4141.48 3637.3 L 4141.07 3637.71 L 4140.86 3638.32 M 4147.33 3636.07 L 4147.12 3635.66 L 4146.51 3635.46 L 4146.1 3635.46 L 4145.49 3635.66 L 4145.08 3636.28 L 4144.87 3637.3 L 4144.87 3638.32 L 4145.08 3639.14 L 4145.49 3639.55 L 4146.1 3639.75 L 4146.3 3639.75 L 4146.92 3639.55 L 4147.33 3639.14 L 4147.53 3638.53 L 4147.53 3638.32 L 4147.33 3637.71 L 4146.92 3637.3 L 4146.3 3637.1 L 4146.1 3637.1 L 4145.49 3637.3 L 4145.08 3637.71 L 4144.87 3638.32" fill="none"  stroke-width="0.6" c_note="note_name" /></g><g c_partid="part_pcbtext" c_etype="" c_origin="4120,3647" c_rotation="0" c_mirror="0" id="gge36" locked="0" layerid="3" c_shapetype="group" ><path c_fontsize="4.5" c_fontfamily="" c_text="P1" d="M 4120 3642.46 L 4120 3646.75 M 4120 3642.46 L 4121.84 3642.46 L 4122.45 3642.66 L 4122.66 3642.87 L 4122.86 3643.28 L 4122.86 3643.89 L 4122.66 3644.3 L 4122.45 3644.5 L 4121.84 3644.71 L 4120 3644.71 M 4124.21 3643.28 L 4124.62 3643.07 L 4125.24 3642.46 L 4125.24 3646.75" fill="none"  stroke-width="0.6" c_note="note_pre" /></g><g c_partid="part_pcbtext" c_etype="" c_origin="4080.82,3810.5" c_rotation="90" c_mirror="0" id="gge40" locked="0" layerid="3" c_shapetype="group" ><path c_fontsize="2" c_fontfamily="" c_text="VIN" d="M 4081.9101 3810.4999 L 4080.0001 3811.2299 M 4081.9101 3811.9499 L 4080.0001 3811.2299 M 4081.9101 3812.5499 L 4080.0001 3812.5499 M 4081.9101 3813.1499 L 4080.0001 3813.1499 M 4081.9101 3813.1499 L 4080.0001 3814.4299 M 4081.9101 3814.4299 L 4080.0001 3814.4299" fill="none"  stroke-width="0.3"  /></g><g c_partid="part_pcbtext" c_etype="" c_origin="4080.82,3800.5" c_rotation="90" c_mirror="0" id="gge58" locked="0" layerid="3" c_shapetype="group" ><path c_fontsize="2" c_fontfamily="" c_text="GND" d="M 4081.4599 3801.86 L 4081.6399 3801.77 L 4081.8199 3801.59 L 4081.9099 3801.41 L 4081.9099 3801.05 L 4081.8199 3800.86 L 4081.6399 3800.68 L 4081.4599 3800.59 L 4081.1799 3800.5 L 4080.7299 3800.5 L 4080.4599 3800.59 L 4080.2699 3800.68 L 4080.0899 3800.86 L 4079.9999 3801.05 L 4079.9999 3801.41 L 4080.0899 3801.59 L 4080.2699 3801.77 L 4080.4599 3801.86 L 4080.7299 3801.86 M 4080.7299 3801.41 L 4080.7299 3801.86 M 4081.9099 3802.46 L 4079.9999 3802.46 M 4081.9099 3802.46 L 4079.9999 3803.74 M 4081.9099 3803.74 L 4079.9999 3803.74 M 4081.9099 3804.34 L 4079.9999 3804.34 M 4081.9099 3804.34 L 4081.9099 3804.97 L 4081.8199 3805.25 L 4081.6399 3805.43 L 4081.4599 3805.52 L 4081.1799 3805.61 L 4080.7299 3805.61 L 4080.4599 3805.52 L 4080.2699 3805.43 L 4080.0899 3805.25 L 4079.9999 3804.97 L 4079.9999 3804.34" fill="none"  stroke-width="0.3"  /></g><g c_partid="part_pcbtext" c_etype="" c_origin="4080.82,3790.5" c_rotation="90" c_mirror="0" id="gge60" locked="0" layerid="3" c_shapetype="group" ><path c_fontsize="2" c_fontfamily="" c_text="RST" d="M 4081.9099 3790.5 L 4079.9999 3790.5 M 4081.9099 3790.5 L 4081.9099 3791.32 L 4081.8199 3791.59 L 4081.7299 3791.68 L 4081.5499 3791.77 L 4081.3699 3791.77 L 4081.1799 3791.68 L 4081.0899 3791.59 L 4080.9999 3791.32 L 4080.9999 3790.5 M 4080.9999 3791.14 L 4079.9999 3791.77 M 4081.6399 3793.65 L 4081.8199 3793.46 L 4081.9099 3793.19 L 4081.9099 3792.83 L 4081.8199 3792.55 L 4081.6399 3792.37 L 4081.4599 3792.37 L 4081.2699 3792.46 L 4081.1799 3792.55 L 4081.0899 3792.74 L 4080.9099 3793.28 L 4080.8199 3793.46 L 4080.7299 3793.55 L 4080.5499 3793.65 L 4080.2699 3793.65 L 4080.0899 3793.46 L 4079.9999 3793.19 L 4079.9999 3792.83 L 4080.0899 3792.55 L 4080.2699 3792.37 M 4081.9099 3794.88 L 4079.9999 3794.88 M 4081.9099 3794.25 L 4081.9099 3795.52" fill="none"  stroke-width="0.3"  /></g><g c_partid="part_pcbtext" c_etype="" c_origin="4080.82,3781.75" c_rotation="90" c_mirror="0" id="gge62" locked="0" layerid="3" c_shapetype="group" ><path c_fontsize="2" c_fontfamily="" c_text="EN" d="M 4081.91 3781.75 L 4080 3781.75 M 4081.91 3781.75 L 4081.91 3782.93 M 4081 3781.75 L 4081 3782.48 M 4080 3781.75 L 4080 3782.93 M 4081.91 3783.53 L 4080 3783.53 M 4081.91 3783.53 L 4080 3784.8 M 4081.91 3784.8 L 4080 3784.8" fill="none"  stroke-width="0.3"  /></g><g c_partid="part_pcbtext" c_etype="" c_origin="4080.82,3770.5" c_rotation="90" c_mirror="0" id="gge64" locked="0" layerid="3" c_shapetype="group" ><path c_fontsize="2" c_fontfamily="" c_text="3V3" d="M 4081.9101 3770.68 L 4081.9101 3771.68 L 4081.1801 3771.14 L 4081.1801 3771.41 L 4081.0901 3771.59 L 4081.0001 3771.68 L 4080.7301 3771.77 L 4080.5501 3771.77 L 4080.2701 3771.68 L 4080.0901 3771.5 L 4080.0001 3771.23 L 4080.0001 3770.95 L 4080.0901 3770.68 L 4080.1801 3770.59 L 4080.3701 3770.5 M 4081.9101 3772.37 L 4080.0001 3773.1 M 4081.9101 3773.83 L 4080.0001 3773.1 M 4081.9101 3774.61 L 4081.9101 3775.61 L 4081.1801 3775.06 L 4081.1801 3775.34 L 4081.0901 3775.52 L 4081.0001 3775.61 L 4080.7301 3775.7 L 4080.5501 3775.7 L 4080.2701 3775.61 L 4080.0901 3775.43 L 4080.0001 3775.15 L 4080.0001 3774.88 L 4080.0901 3774.61 L 4080.1801 3774.52 L 4080.3701 3774.43" fill="none"  stroke-width="0.3"  /></g><g c_partid="part_pcbtext" c_etype="" c_origin="4080.82,3760.5" c_rotation="90" c_mirror="0" id="gge66" locked="0" layerid="3" c_shapetype="group" ><path c_fontsize="2" c_fontfamily="" c_text="GND" d="M 4081.4601 3761.86 L 4081.6401 3761.77 L 4081.8201 3761.59 L 4081.9101 3761.41 L 4081.9101 3761.05 L 4081.8201 3760.86 L 4081.6401 3760.68 L 4081.4601 3760.59 L 4081.1801 3760.5 L 4080.7301 3760.5 L 4080.4601 3760.59 L 4080.2701 3760.68 L 4080.0901 3760.86 L 4080.0001 3761.05 L 4080.0001 3761.41 L 4080.0901 3761.59 L 4080.2701 3761.77 L 4080.4601 3761.86 L 4080.7301 3761.86 M 4080.7301 3761.41 L 4080.7301 3761.86 M 4081.9101 3762.46 L 4080.0001 3762.46 M 4081.9101 3762.46 L 4080.0001 3763.74 M 4081.9101 3763.74 L 4080.0001 3763.74 M 4081.9101 3764.34 L 4080.0001 3764.34 M 4081.9101 3764.34 L 4081.9101 3764.97 L 4081.8201 3765.25 L 4081.6401 3765.43 L 4081.4601 3765.52 L 4081.1801 3765.61 L 4080.7301 3765.61 L 4080.4601 3765.52 L 4080.2701 3765.43 L 4080.0901 3765.25 L 4080.0001 3764.97 L 4080.0001 3764.34" fill="none"  stroke-width="0.3"  /></g><g c_partid="part_pcbtext" c_etype="" c_origin="4081.09,3750.43" c_rotation="90" c_mirror="0" id="gge68" locked="0" layerid="3" c_shapetype="group" ><path c_fontsize="2" c_fontfamily="" c_text="CLK" d="M 4081.7299 3751.7901 L 4081.9099 3751.7001 L 4082.0899 3751.5201 L 4082.1799 3751.3401 L 4082.1799 3750.9801 L 4082.0899 3750.7901 L 4081.9099 3750.6101 L 4081.7299 3750.5201 L 4081.4499 3750.4301 L 4080.9999 3750.4301 L 4080.7299 3750.5201 L 4080.5399 3750.6101 L 4080.3599 3750.7901 L 4080.2699 3750.9801 L 4080.2699 3751.3401 L 4080.3599 3751.5201 L 4080.5399 3751.7001 L 4080.7299 3751.7901 M 4082.1799 3752.3901 L 4080.2699 3752.3901 M 4080.2699 3752.3901 L 4080.2699 3753.4801 M 4082.1799 3754.0801 L 4080.2699 3754.0801 M 4082.1799 3755.3601 L 4080.9099 3754.0801 M 4081.3599 3754.5401 L 4080.2699 3755.3601" fill="none"  stroke-width="0.3"  /></g><g c_partid="part_pcbtext" c_etype="" c_origin="4080.82,3740.5" c_rotation="90" c_mirror="0" id="gge70" locked="0" layerid="3" c_shapetype="group" ><path c_fontsize="2" c_fontfamily="" c_text="SD0" d="M 4081.64 3741.77 L 4081.82 3741.59 L 4081.91 3741.32 L 4081.91 3740.95 L 4081.82 3740.68 L 4081.64 3740.5 L 4081.46 3740.5 L 4081.27 3740.59 L 4081.18 3740.68 L 4081.09 3740.86 L 4080.91 3741.41 L 4080.82 3741.59 L 4080.73 3741.68 L 4080.55 3741.77 L 4080.27 3741.77 L 4080.09 3741.59 L 4080 3741.32 L 4080 3740.95 L 4080.09 3740.68 L 4080.27 3740.5 M 4081.91 3742.37 L 4080 3742.37 M 4081.91 3742.37 L 4081.91 3743.01 L 4081.82 3743.28 L 4081.64 3743.46 L 4081.46 3743.55 L 4081.18 3743.65 L 4080.73 3743.65 L 4080.46 3743.55 L 4080.27 3743.46 L 4080.09 3743.28 L 4080 3743.01 L 4080 3742.37 M 4081.91 3744.79 L 4081.82 3744.52 L 4081.55 3744.34 L 4081.09 3744.25 L 4080.82 3744.25 L 4080.37 3744.34 L 4080.09 3744.52 L 4080 3744.79 L 4080 3744.97 L 4080.09 3745.25 L 4080.37 3745.43 L 4080.82 3745.52 L 4081.09 3745.52 L 4081.55 3745.43 L 4081.82 3745.25 L 4081.91 3744.97 L 4081.91 3744.79" fill="none"  stroke-width="0.3"  /></g><g c_partid="part_pcbtext" c_etype="" c_origin="4080.82,3730.5" c_rotation="90" c_mirror="0" id="gge72" locked="0" layerid="3" c_shapetype="group" ><path c_fontsize="2" c_fontfamily="" c_text="CMD" d="M 4081.46 3731.86 L 4081.64 3731.77 L 4081.82 3731.59 L 4081.91 3731.41 L 4081.91 3731.05 L 4081.82 3730.86 L 4081.64 3730.68 L 4081.46 3730.59 L 4081.18 3730.5 L 4080.73 3730.5 L 4080.46 3730.59 L 4080.27 3730.68 L 4080.09 3730.86 L 4080 3731.05 L 4080 3731.41 L 4080.09 3731.59 L 4080.27 3731.77 L 4080.46 3731.86 M 4081.91 3732.46 L 4080 3732.46 M 4081.91 3732.46 L 4080 3733.19 M 4081.91 3733.92 L 4080 3733.19 M 4081.91 3733.92 L 4080 3733.92 M 4081.91 3734.52 L 4080 3734.52 M 4081.91 3734.52 L 4081.91 3735.15 L 4081.82 3735.43 L 4081.64 3735.61 L 4081.46 3735.7 L 4081.18 3735.79 L 4080.73 3735.79 L 4080.46 3735.7 L 4080.27 3735.61 L 4080.09 3735.43 L 4080 3735.15 L 4080 3734.52" fill="none"  stroke-width="0.3"  /></g><g c_partid="part_pcbtext" c_etype="" c_origin="4080.82,3720.5" c_rotation="90" c_mirror="0" id="gge74" locked="0" layerid="3" c_shapetype="group" ><path c_fontsize="2" c_fontfamily="" c_text="SD1" d="M 4081.64 3721.77 L 4081.82 3721.59 L 4081.91 3721.32 L 4081.91 3720.95 L 4081.82 3720.68 L 4081.64 3720.5 L 4081.46 3720.5 L 4081.27 3720.59 L 4081.18 3720.68 L 4081.09 3720.86 L 4080.91 3721.41 L 4080.82 3721.59 L 4080.73 3721.68 L 4080.55 3721.77 L 4080.27 3721.77 L 4080.09 3721.59 L 4080 3721.32 L 4080 3720.95 L 4080.09 3720.68 L 4080.27 3720.5 M 4081.91 3722.37 L 4080 3722.37 M 4081.91 3722.37 L 4081.91 3723.01 L 4081.82 3723.28 L 4081.64 3723.46 L 4081.46 3723.55 L 4081.18 3723.65 L 4080.73 3723.65 L 4080.46 3723.55 L 4080.27 3723.46 L 4080.09 3723.28 L 4080 3723.01 L 4080 3722.37 M 4081.55 3724.25 L 4081.64 3724.43 L 4081.91 3724.7 L 4080 3724.7" fill="none"  stroke-width="0.3"  /></g><g c_partid="part_pcbtext" c_etype="" c_origin="4080.82,3710.5" c_rotation="90" c_mirror="0" id="gge76" locked="0" layerid="3" c_shapetype="group" ><path c_fontsize="2" c_fontfamily="" c_text="SD2" d="M 4081.64 3711.77 L 4081.82 3711.59 L 4081.91 3711.32 L 4081.91 3710.95 L 4081.82 3710.68 L 4081.64 3710.5 L 4081.46 3710.5 L 4081.27 3710.59 L 4081.18 3710.68 L 4081.09 3710.86 L 4080.91 3711.41 L 4080.82 3711.59 L 4080.73 3711.68 L 4080.55 3711.77 L 4080.27 3711.77 L 4080.09 3711.59 L 4080 3711.32 L 4080 3710.95 L 4080.09 3710.68 L 4080.27 3710.5 M 4081.91 3712.37 L 4080 3712.37 M 4081.91 3712.37 L 4081.91 3713.01 L 4081.82 3713.28 L 4081.64 3713.46 L 4081.46 3713.55 L 4081.18 3713.65 L 4080.73 3713.65 L 4080.46 3713.55 L 4080.27 3713.46 L 4080.09 3713.28 L 4080 3713.01 L 4080 3712.37 M 4081.46 3714.34 L 4081.55 3714.34 L 4081.73 3714.43 L 4081.82 3714.52 L 4081.91 3714.7 L 4081.91 3715.06 L 4081.82 3715.25 L 4081.73 3715.34 L 4081.55 3715.43 L 4081.37 3715.43 L 4081.18 3715.34 L 4080.91 3715.15 L 4080 3714.25 L 4080 3715.52" fill="none"  stroke-width="0.3"  /></g><g c_partid="part_pcbtext" c_etype="" c_origin="4080.82,3700.5" c_rotation="90" c_mirror="0" id="gge78" locked="0" layerid="3" c_shapetype="group" ><path c_fontsize="2" c_fontfamily="" c_text="SD3" d="M 4081.6401 3701.77 L 4081.8201 3701.59 L 4081.9101 3701.32 L 4081.9101 3700.95 L 4081.8201 3700.68 L 4081.6401 3700.5 L 4081.4601 3700.5 L 4081.2701 3700.59 L 4081.1801 3700.68 L 4081.0901 3700.86 L 4080.9101 3701.41 L 4080.8201 3701.59 L 4080.7301 3701.68 L 4080.5501 3701.77 L 4080.2701 3701.77 L 4080.0901 3701.59 L 4080.0001 3701.32 L 4080.0001 3700.95 L 4080.0901 3700.68 L 4080.2701 3700.5 M 4081.9101 3702.37 L 4080.0001 3702.37 M 4081.9101 3702.37 L 4081.9101 3703.01 L 4081.8201 3703.28 L 4081.6401 3703.46 L 4081.4601 3703.55 L 4081.1801 3703.65 L 4080.7301 3703.65 L 4080.4601 3703.55 L 4080.2701 3703.46 L 4080.0901 3703.28 L 4080.0001 3703.01 L 4080.0001 3702.37 M 4081.9101 3704.43 L 4081.9101 3705.43 L 4081.1801 3704.88 L 4081.1801 3705.15 L 4081.0901 3705.34 L 4081.0001 3705.43 L 4080.7301 3705.52 L 4080.5501 3705.52 L 4080.2701 3705.43 L 4080.0901 3705.25 L 4080.0001 3704.97 L 4080.0001 3704.7 L 4080.0901 3704.43 L 4080.1801 3704.34 L 4080.3701 3704.25" fill="none"  stroke-width="0.3"  /></g><g c_partid="part_pcbtext" c_etype="" c_origin="4080.82,3690.5" c_rotation="90" c_mirror="0" id="gge80" locked="0" layerid="3" c_shapetype="group" ><path c_fontsize="2" c_fontfamily="" c_text="RSV" d="M 4081.91 3690.5 L 4080 3690.5 M 4081.91 3690.5 L 4081.91 3691.32 L 4081.82 3691.59 L 4081.73 3691.68 L 4081.55 3691.77 L 4081.37 3691.77 L 4081.18 3691.68 L 4081.09 3691.59 L 4081 3691.32 L 4081 3690.5 M 4081 3691.14 L 4080 3691.77 M 4081.64 3693.65 L 4081.82 3693.46 L 4081.91 3693.19 L 4081.91 3692.83 L 4081.82 3692.55 L 4081.64 3692.37 L 4081.46 3692.37 L 4081.27 3692.46 L 4081.18 3692.55 L 4081.09 3692.74 L 4080.91 3693.28 L 4080.82 3693.46 L 4080.73 3693.55 L 4080.55 3693.65 L 4080.27 3693.65 L 4080.09 3693.46 L 4080 3693.19 L 4080 3692.83 L 4080.09 3692.55 L 4080.27 3692.37 M 4081.91 3694.25 L 4080 3694.97 M 4081.91 3695.7 L 4080 3694.97" fill="none"  stroke-width="0.3"  /></g><g c_partid="part_pcbtext" c_etype="" c_origin="4080.82,3680.5" c_rotation="90" c_mirror="0" id="gge82" locked="0" layerid="3" c_shapetype="group" ><path c_fontsize="2" c_fontfamily="" c_text="RSV" d="M 4081.91 3680.5 L 4080 3680.5 M 4081.91 3680.5 L 4081.91 3681.32 L 4081.82 3681.59 L 4081.73 3681.68 L 4081.55 3681.77 L 4081.37 3681.77 L 4081.18 3681.68 L 4081.09 3681.59 L 4081 3681.32 L 4081 3680.5 M 4081 3681.14 L 4080 3681.77 M 4081.64 3683.65 L 4081.82 3683.46 L 4081.91 3683.19 L 4081.91 3682.83 L 4081.82 3682.55 L 4081.64 3682.37 L 4081.46 3682.37 L 4081.27 3682.46 L 4081.18 3682.55 L 4081.09 3682.74 L 4080.91 3683.28 L 4080.82 3683.46 L 4080.73 3683.55 L 4080.55 3683.65 L 4080.27 3683.65 L 4080.09 3683.46 L 4080 3683.19 L 4080 3682.83 L 4080.09 3682.55 L 4080.27 3682.37 M 4081.91 3684.25 L 4080 3684.97 M 4081.91 3685.7 L 4080 3684.97" fill="none"  stroke-width="0.3"  /></g><g c_partid="part_pcbtext" c_etype="" c_origin="4080.82,3670.5" c_rotation="90" c_mirror="0" id="gge84" locked="0" layerid="3" c_shapetype="group" ><path c_fontsize="2" c_fontfamily="" c_text="AD0" d="M 4081.91 3671.23 L 4080 3670.5 M 4081.91 3671.23 L 4080 3671.95 M 4080.64 3670.77 L 4080.64 3671.68 M 4081.91 3672.55 L 4080 3672.55 M 4081.91 3672.55 L 4081.91 3673.19 L 4081.82 3673.46 L 4081.64 3673.65 L 4081.46 3673.74 L 4081.18 3673.83 L 4080.73 3673.83 L 4080.46 3673.74 L 4080.27 3673.65 L 4080.09 3673.46 L 4080 3673.19 L 4080 3672.55 M 4081.91 3674.97 L 4081.82 3674.7 L 4081.55 3674.52 L 4081.09 3674.43 L 4080.82 3674.43 L 4080.37 3674.52 L 4080.09 3674.7 L 4080 3674.97 L 4080 3675.15 L 4080.09 3675.43 L 4080.37 3675.61 L 4080.82 3675.7 L 4081.09 3675.7 L 4081.55 3675.61 L 4081.82 3675.43 L 4081.91 3675.15 L 4081.91 3674.97" fill="none"  stroke-width="0.3"  /></g><g c_partid="part_pcbtext" c_etype="" c_origin="4158.75,3815.5" c_rotation="270" c_mirror="0" id="gge86" locked="0" layerid="3" c_shapetype="group" ><path c_fontsize="2" c_fontfamily="" c_text="3V3" d="M 4157.6599 3815.32 L 4157.6599 3814.32 L 4158.3899 3814.86 L 4158.3899 3814.59 L 4158.4799 3814.41 L 4158.5699 3814.32 L 4158.8399 3814.23 L 4159.0199 3814.23 L 4159.2999 3814.32 L 4159.4799 3814.5 L 4159.5699 3814.77 L 4159.5699 3815.05 L 4159.4799 3815.32 L 4159.3899 3815.41 L 4159.1999 3815.5 M 4157.6599 3813.63 L 4159.5699 3812.9 M 4157.6599 3812.17 L 4159.5699 3812.9 M 4157.6599 3811.39 L 4157.6599 3810.39 L 4158.3899 3810.94 L 4158.3899 3810.66 L 4158.4799 3810.48 L 4158.5699 3810.39 L 4158.8399 3810.3 L 4159.0199 3810.3 L 4159.2999 3810.39 L 4159.4799 3810.57 L 4159.5699 3810.85 L 4159.5699 3811.12 L 4159.4799 3811.39 L 4159.3899 3811.48 L 4159.1999 3811.57" fill="none"  stroke-width="0.3"  /></g><g c_partid="part_pcbtext" c_etype="" c_origin="4158.59,3805.61" c_rotation="270" c_mirror="0" id="gge88" locked="0" layerid="3" c_shapetype="group" ><path c_fontsize="2" c_fontfamily="" c_text="GND" d="M 4157.9499 3804.2501 L 4157.7699 3804.3401 L 4157.5899 3804.5201 L 4157.4999 3804.7001 L 4157.4999 3805.0601 L 4157.5899 3805.2501 L 4157.7699 3805.4301 L 4157.9499 3805.5201 L 4158.2299 3805.6101 L 4158.6799 3805.6101 L 4158.9499 3805.5201 L 4159.1399 3805.4301 L 4159.3199 3805.2501 L 4159.4099 3805.0601 L 4159.4099 3804.7001 L 4159.3199 3804.5201 L 4159.1399 3804.3401 L 4158.9499 3804.2501 L 4158.6799 3804.2501 M 4158.6799 3804.7001 L 4158.6799 3804.2501 M 4157.4999 3803.6501 L 4159.4099 3803.6501 M 4157.4999 3803.6501 L 4159.4099 3802.3701 M 4157.4999 3802.3701 L 4159.4099 3802.3701 M 4157.4999 3801.7701 L 4159.4099 3801.7701 M 4157.4999 3801.7701 L 4157.4999 3801.1401 L 4157.5899 3800.8601 L 4157.7699 3800.6801 L 4157.9499 3800.5901 L 4158.2299 3800.5001 L 4158.6799 3800.5001 L 4158.9499 3800.5901 L 4159.1399 3800.6801 L 4159.3199 3800.8601 L 4159.4099 3801.1401 L 4159.4099 3801.7701" fill="none"  stroke-width="0.3"  /></g><g c_partid="part_pcbtext" c_etype="" c_origin="4158.59,3794.9" c_rotation="270" c_mirror="0" id="gge90" locked="0" layerid="3" c_shapetype="group" ><path c_fontsize="2" c_fontfamily="" c_text="TX" d="M 4157.5001 3794.2599 L 4159.4101 3794.2599 M 4157.5001 3794.8999 L 4157.5001 3793.6299 M 4157.5001 3793.0299 L 4159.4101 3791.7499 M 4157.5001 3791.7499 L 4159.4101 3793.0299" fill="none"  stroke-width="0.3"  /></g><g c_partid="part_pcbtext" c_etype="" c_origin="4158.59,3784.9" c_rotation="270" c_mirror="0" id="gge92" locked="0" layerid="3" c_shapetype="group" ><path c_fontsize="2" c_fontfamily="" c_text="RX" d="M 4157.5001 3784.8999 L 4159.4101 3784.8999 M 4157.5001 3784.8999 L 4157.5001 3784.0799 L 4157.5901 3783.8099 L 4157.6801 3783.7199 L 4157.8601 3783.6299 L 4158.0401 3783.6299 L 4158.2301 3783.7199 L 4158.3201 3783.8099 L 4158.4101 3784.0799 L 4158.4101 3784.8999 M 4158.4101 3784.2599 L 4159.4101 3783.6299 M 4157.5001 3783.0299 L 4159.4101 3781.7499 M 4157.5001 3781.7499 L 4159.4101 3783.0299" fill="none"  stroke-width="0.3"  /></g><g c_partid="part_pcbtext" c_etype="" c_origin="4158.59,3774.9" c_rotation="270" c_mirror="0" id="gge94" locked="0" layerid="3" c_shapetype="group" ><path c_fontsize="2" c_fontfamily="" c_text="D8" d="M 4157.5 3774.8999 L 4159.41 3774.8999 M 4157.5 3774.8999 L 4157.5 3774.2599 L 4157.59 3773.9899 L 4157.77 3773.8099 L 4157.95 3773.7199 L 4158.23 3773.6299 L 4158.68 3773.6299 L 4158.95 3773.7199 L 4159.14 3773.8099 L 4159.32 3773.9899 L 4159.41 3774.2599 L 4159.41 3774.8999 M 4157.5 3772.5699 L 4157.59 3772.8499 L 4157.77 3772.9399 L 4157.95 3772.9399 L 4158.14 3772.8499 L 4158.23 3772.6599 L 4158.32 3772.2999 L 4158.41 3772.0299 L 4158.59 3771.8499 L 4158.77 3771.7499 L 4159.04 3771.7499 L 4159.23 3771.8499 L 4159.32 3771.9399 L 4159.41 3772.2099 L 4159.41 3772.5699 L 4159.32 3772.8499 L 4159.23 3772.9399 L 4159.04 3773.0299 L 4158.77 3773.0299 L 4158.59 3772.9399 L 4158.41 3772.7499 L 4158.32 3772.4799 L 4158.23 3772.1199 L 4158.14 3771.9399 L 4157.95 3771.8499 L 4157.77 3771.8499 L 4157.59 3771.9399 L 4157.5 3772.2099 L 4157.5 3772.5699" fill="none"  stroke-width="0.3"  /></g><g c_partid="part_pcbtext" c_etype="" c_origin="4158.75,3764.25" c_rotation="270" c_mirror="0" id="gge96" locked="0" layerid="3" c_shapetype="group" ><path c_fontsize="2" c_fontfamily="" c_text="D7" d="M 4157.66 3764.25 L 4159.57 3764.25 M 4157.66 3764.25 L 4157.66 3763.61 L 4157.75 3763.34 L 4157.93 3763.16 L 4158.11 3763.07 L 4158.39 3762.98 L 4158.84 3762.98 L 4159.11 3763.07 L 4159.3 3763.16 L 4159.48 3763.34 L 4159.57 3763.61 L 4159.57 3764.25 M 4157.66 3761.1 L 4159.57 3762.01 M 4157.66 3762.38 L 4157.66 3761.1" fill="none"  stroke-width="0.3"  /></g><g c_partid="part_pcbtext" c_etype="" c_origin="4158.59,3754.8" c_rotation="270" c_mirror="0" id="gge98" locked="0" layerid="3" c_shapetype="group" ><path c_fontsize="2" c_fontfamily="" c_text="D6" d="M 4157.5001 3754.8 L 4159.4101 3754.8 M 4157.5001 3754.8 L 4157.5001 3754.16 L 4157.5901 3753.89 L 4157.7701 3753.71 L 4157.9501 3753.62 L 4158.2301 3753.53 L 4158.6801 3753.53 L 4158.9501 3753.62 L 4159.1401 3753.71 L 4159.3201 3753.89 L 4159.4101 3754.16 L 4159.4101 3754.8 M 4157.7701 3751.84 L 4157.5901 3751.93 L 4157.5001 3752.2 L 4157.5001 3752.38 L 4157.5901 3752.65 L 4157.8601 3752.84 L 4158.3201 3752.93 L 4158.7701 3752.93 L 4159.1401 3752.84 L 4159.3201 3752.65 L 4159.4101 3752.38 L 4159.4101 3752.29 L 4159.3201 3752.02 L 4159.1401 3751.84 L 4158.8601 3751.75 L 4158.7701 3751.75 L 4158.5001 3751.84 L 4158.3201 3752.02 L 4158.2301 3752.29 L 4158.2301 3752.38 L 4158.3201 3752.65 L 4158.5001 3752.84 L 4158.7701 3752.93" fill="none"  stroke-width="0.3"  /></g><g c_partid="part_pcbtext" c_etype="" c_origin="4158.59,3744.9" c_rotation="270" c_mirror="0" id="gge100" locked="0" layerid="3" c_shapetype="group" ><path c_fontsize="2" c_fontfamily="" c_text="D5" d="M 4157.5001 3744.8999 L 4159.4101 3744.8999 M 4157.5001 3744.8999 L 4157.5001 3744.2599 L 4157.5901 3743.9899 L 4157.7701 3743.8099 L 4157.9501 3743.7199 L 4158.2301 3743.6299 L 4158.6801 3743.6299 L 4158.9501 3743.7199 L 4159.1401 3743.8099 L 4159.3201 3743.9899 L 4159.4101 3744.2599 L 4159.4101 3744.8999 M 4157.5001 3741.9399 L 4157.5001 3742.8499 L 4158.3201 3742.9399 L 4158.2301 3742.8499 L 4158.1401 3742.5699 L 4158.1401 3742.2999 L 4158.2301 3742.0299 L 4158.4101 3741.8499 L 4158.6801 3741.7499 L 4158.8601 3741.7499 L 4159.1401 3741.8499 L 4159.3201 3742.0299 L 4159.4101 3742.2999 L 4159.4101 3742.5699 L 4159.3201 3742.8499 L 4159.2301 3742.9399 L 4159.0401 3743.0299" fill="none"  stroke-width="0.3"  /></g><g c_partid="part_pcbtext" c_etype="" c_origin="4158.59,3714.99" c_rotation="270" c_mirror="0" id="gge102" locked="0" layerid="3" c_shapetype="group" ><path c_fontsize="2" c_fontfamily="" c_text="D4" d="M 4157.5001 3714.99 L 4159.4101 3714.99 M 4157.5001 3714.99 L 4157.5001 3714.35 L 4157.5901 3714.08 L 4157.7701 3713.9 L 4157.9501 3713.81 L 4158.2301 3713.72 L 4158.6801 3713.72 L 4158.9501 3713.81 L 4159.1401 3713.9 L 4159.3201 3714.08 L 4159.4101 3714.35 L 4159.4101 3714.99 M 4157.5001 3712.21 L 4158.7701 3713.12 L 4158.7701 3711.75 M 4157.5001 3712.21 L 4159.4101 3712.21" fill="none"  stroke-width="0.3"  /></g><g c_partid="part_pcbtext" c_etype="" c_origin="4158.59,3704.9" c_rotation="270" c_mirror="0" id="gge104" locked="0" layerid="3" c_shapetype="group" ><path c_fontsize="2" c_fontfamily="" c_text="D3" d="M 4157.5001 3704.8999 L 4159.4101 3704.8999 M 4157.5001 3704.8999 L 4157.5001 3704.2599 L 4157.5901 3703.9899 L 4157.7701 3703.8099 L 4157.9501 3703.7199 L 4158.2301 3703.6299 L 4158.6801 3703.6299 L 4158.9501 3703.7199 L 4159.1401 3703.8099 L 4159.3201 3703.9899 L 4159.4101 3704.2599 L 4159.4101 3704.8999 M 4157.5001 3702.8499 L 4157.5001 3701.8499 L 4158.2301 3702.3899 L 4158.2301 3702.1199 L 4158.3201 3701.9399 L 4158.4101 3701.8499 L 4158.6801 3701.7499 L 4158.8601 3701.7499 L 4159.1401 3701.8499 L 4159.3201 3702.0299 L 4159.4101 3702.2999 L 4159.4101 3702.5699 L 4159.3201 3702.8499 L 4159.2301 3702.9399 L 4159.0401 3703.0299" fill="none"  stroke-width="0.3"  /></g><g c_partid="part_pcbtext" c_etype="" c_origin="4158.59,3694.9" c_rotation="270" c_mirror="0" id="gge106" locked="0" layerid="3" c_shapetype="group" ><path c_fontsize="2" c_fontfamily="" c_text="D2" d="M 4157.5001 3694.8999 L 4159.4101 3694.8999 M 4157.5001 3694.8999 L 4157.5001 3694.2599 L 4157.5901 3693.9899 L 4157.7701 3693.8099 L 4157.9501 3693.7199 L 4158.2301 3693.6299 L 4158.6801 3693.6299 L 4158.9501 3693.7199 L 4159.1401 3693.8099 L 4159.3201 3693.9899 L 4159.4101 3694.2599 L 4159.4101 3694.8999 M 4157.9501 3692.9399 L 4157.8601 3692.9399 L 4157.6801 3692.8499 L 4157.5901 3692.7499 L 4157.5001 3692.5699 L 4157.5001 3692.2099 L 4157.5901 3692.0299 L 4157.6801 3691.9399 L 4157.8601 3691.8499 L 4158.0401 3691.8499 L 4158.2301 3691.9399 L 4158.5001 3692.1199 L 4159.4101 3693.0299 L 4159.4101 3691.7499" fill="none"  stroke-width="0.3"  /></g><g c_partid="part_pcbtext" c_etype="" c_origin="4158.59,3684.08" c_rotation="270" c_mirror="0" id="gge108" locked="0" layerid="3" c_shapetype="group" ><path c_fontsize="2" c_fontfamily="" c_text="D1" d="M 4157.5001 3684.0801 L 4159.4101 3684.0801 M 4157.5001 3684.0801 L 4157.5001 3683.4401 L 4157.5901 3683.1701 L 4157.7701 3682.9901 L 4157.9501 3682.9001 L 4158.2301 3682.8101 L 4158.6801 3682.8101 L 4158.9501 3682.9001 L 4159.1401 3682.9901 L 4159.3201 3683.1701 L 4159.4101 3683.4401 L 4159.4101 3684.0801 M 4157.8601 3682.2101 L 4157.7701 3682.0301 L 4157.5001 3681.7501 L 4159.4101 3681.7501" fill="none"  stroke-width="0.3"  /></g><g c_partid="part_pcbtext" c_etype="" c_origin="4158.59,3674.9" c_rotation="270" c_mirror="0" id="gge110" locked="0" layerid="3" c_shapetype="group" ><path c_fontsize="2" c_fontfamily="" c_text="D0" d="M 4157.5001 3674.8999 L 4159.4101 3674.8999 M 4157.5001 3674.8999 L 4157.5001 3674.2599 L 4157.5901 3673.9899 L 4157.7701 3673.8099 L 4157.9501 3673.7199 L 4158.2301 3673.6299 L 4158.6801 3673.6299 L 4158.9501 3673.7199 L 4159.1401 3673.8099 L 4159.3201 3673.9899 L 4159.4101 3674.2599 L 4159.4101 3674.8999 M 4157.5001 3672.4799 L 4157.5901 3672.7499 L 4157.8601 3672.9399 L 4158.3201 3673.0299 L 4158.5901 3673.0299 L 4159.0401 3672.9399 L 4159.3201 3672.7499 L 4159.4101 3672.4799 L 4159.4101 3672.2999 L 4159.3201 3672.0299 L 4159.0401 3671.8499 L 4158.5901 3671.7499 L 4158.3201 3671.7499 L 4157.8601 3671.8499 L 4157.5901 3672.0299 L 4157.5001 3672.2999 L 4157.5001 3672.4799" fill="none"  stroke-width="0.3"  /></g><g c_partid="part_pcbtext" c_etype="" c_origin="4158.75,3735.5" c_rotation="270" c_mirror="0" id="gge112" locked="0" layerid="3" c_shapetype="group" ><path c_fontsize="2" c_fontfamily="" c_text="GND" d="M 4158.1099 3734.1401 L 4157.9299 3734.2301 L 4157.7499 3734.4101 L 4157.6599 3734.5901 L 4157.6599 3734.9501 L 4157.7499 3735.1401 L 4157.9299 3735.3201 L 4158.1099 3735.4101 L 4158.3899 3735.5001 L 4158.8399 3735.5001 L 4159.1099 3735.4101 L 4159.2999 3735.3201 L 4159.4799 3735.1401 L 4159.5699 3734.9501 L 4159.5699 3734.5901 L 4159.4799 3734.4101 L 4159.2999 3734.2301 L 4159.1099 3734.1401 L 4158.8399 3734.1401 M 4158.8399 3734.5901 L 4158.8399 3734.1401 M 4157.6599 3733.5401 L 4159.5699 3733.5401 M 4157.6599 3733.5401 L 4159.5699 3732.2601 M 4157.6599 3732.2601 L 4159.5699 3732.2601 M 4157.6599 3731.6601 L 4159.5699 3731.6601 M 4157.6599 3731.6601 L 4157.6599 3731.0301 L 4157.7499 3730.7501 L 4157.9299 3730.5701 L 4158.1099 3730.4801 L 4158.3899 3730.3901 L 4158.8399 3730.3901 L 4159.1099 3730.4801 L 4159.2999 3730.5701 L 4159.4799 3730.7501 L 4159.5699 3731.0301 L 4159.5699 3731.6601" fill="none"  stroke-width="0.3"  /></g><g c_partid="part_pcbtext" c_etype="" c_origin="4158.75,3725.5" c_rotation="270" c_mirror="0" id="gge114" locked="0" layerid="3" c_shapetype="group" ><path c_fontsize="2" c_fontfamily="" c_text="3V3" d="M 4157.6599 3725.32 L 4157.6599 3724.32 L 4158.3899 3724.86 L 4158.3899 3724.59 L 4158.4799 3724.41 L 4158.5699 3724.32 L 4158.8399 3724.23 L 4159.0199 3724.23 L 4159.2999 3724.32 L 4159.4799 3724.5 L 4159.5699 3724.77 L 4159.5699 3725.05 L 4159.4799 3725.32 L 4159.3899 3725.41 L 4159.1999 3725.5 M 4157.6599 3723.63 L 4159.5699 3722.9 M 4157.6599 3722.17 L 4159.5699 3722.9 M 4157.6599 3721.39 L 4157.6599 3720.39 L 4158.3899 3720.94 L 4158.3899 3720.66 L 4158.4799 3720.48 L 4158.5699 3720.39 L 4158.8399 3720.3 L 4159.0199 3720.3 L 4159.2999 3720.39 L 4159.4799 3720.57 L 4159.5699 3720.85 L 4159.5699 3721.12 L 4159.4799 3721.39 L 4159.3899 3721.48 L 4159.1999 3721.57" fill="none"  stroke-width="0.3"  /></g><g c_partid="part_pcbtext" c_etype="" c_origin="4208.77,3687.56" c_rotation="0" c_mirror="0" id="gge268" locked="0" layerid="3" c_shapetype="group" display="none"><path c_fontsize="4.5" c_fontfamily="" c_text="LiPol Battery" d="M 4208.77 3683.0201 L 4208.77 3687.3101 M 4208.77 3687.3101 L 4211.22 3687.3101 M 4212.57 3683.0201 L 4212.78 3683.2201 L 4212.98 3683.0201 L 4212.78 3682.8101 L 4212.57 3683.0201 M 4212.78 3684.4501 L 4212.78 3687.3101 M 4214.33 3683.0201 L 4214.33 3687.3101 M 4214.33 3683.0201 L 4216.17 3683.0201 L 4216.79 3683.2201 L 4216.99 3683.4301 L 4217.2 3683.8401 L 4217.2 3684.4501 L 4216.99 3684.8601 L 4216.79 3685.0601 L 4216.17 3685.2701 L 4214.33 3685.2701 M 4219.57 3684.4501 L 4219.16 3684.6601 L 4218.75 3685.0601 L 4218.55 3685.6801 L 4218.55 3686.0901 L 4218.75 3686.7001 L 4219.16 3687.1101 L 4219.57 3687.3101 L 4220.18 3687.3101 L 4220.59 3687.1101 L 4221 3686.7001 L 4221.21 3686.0901 L 4221.21 3685.6801 L 4221 3685.0601 L 4220.59 3684.6601 L 4220.18 3684.4501 L 4219.57 3684.4501 M 4222.56 3683.0201 L 4222.56 3687.3101 M 4227.06 3683.0201 L 4227.06 3687.3101 M 4227.06 3683.0201 L 4228.9 3683.0201 L 4229.51 3683.2201 L 4229.72 3683.4301 L 4229.92 3683.8401 L 4229.92 3684.2501 L 4229.72 3684.6601 L 4229.51 3684.8601 L 4228.9 3685.0601 M 4227.06 3685.0601 L 4228.9 3685.0601 L 4229.51 3685.2701 L 4229.72 3685.4701 L 4229.92 3685.8801 L 4229.92 3686.5001 L 4229.72 3686.9101 L 4229.51 3687.1101 L 4228.9 3687.3101 L 4227.06 3687.3101 M 4233.72 3684.4501 L 4233.72 3687.3101 M 4233.72 3685.0601 L 4233.32 3684.6601 L 4232.91 3684.4501 L 4232.29 3684.4501 L 4231.88 3684.6601 L 4231.47 3685.0601 L 4231.27 3685.6801 L 4231.27 3686.0901 L 4231.47 3686.7001 L 4231.88 3687.1101 L 4232.29 3687.3101 L 4232.91 3687.3101 L 4233.32 3687.1101 L 4233.72 3686.7001 M 4235.69 3683.0201 L 4235.69 3686.5001 L 4235.89 3687.1101 L 4236.3 3687.3101 L 4236.71 3687.3101 M 4235.07 3684.4501 L 4236.51 3684.4501 M 4238.67 3683.0201 L 4238.67 3686.5001 L 4238.88 3687.1101 L 4239.29 3687.3101 L 4239.7 3687.3101 M 4238.06 3684.4501 L 4239.49 3684.4501 M 4241.05 3685.6801 L 4243.5 3685.6801 L 4243.5 3685.2701 L 4243.3 3684.8601 L 4243.09 3684.6601 L 4242.68 3684.4501 L 4242.07 3684.4501 L 4241.66 3684.6601 L 4241.25 3685.0601 L 4241.05 3685.6801 L 4241.05 3686.0901 L 4241.25 3686.7001 L 4241.66 3687.1101 L 4242.07 3687.3101 L 4242.68 3687.3101 L 4243.09 3687.1101 L 4243.5 3686.7001 M 4244.85 3684.4501 L 4244.85 3687.3101 M 4244.85 3685.6801 L 4245.06 3685.0601 L 4245.47 3684.6601 L 4245.87 3684.4501 L 4246.49 3684.4501 M 4248.04 3684.4501 L 4249.27 3687.3101 M 4250.5 3684.4501 L 4249.27 3687.3101 L 4248.86 3688.1301 L 4248.45 3688.5401 L 4248.04 3688.7501 L 4247.84 3688.7501" fill="none"  stroke-width="0.6" c_note="note_name" /></g><g c_partid="part_pcbtext" c_etype="" c_origin="4250.5,3677" c_rotation="180" c_mirror="0" id="gge270" locked="0" layerid="3" c_shapetype="group" ><path c_fontsize="4.5" c_fontfamily="" c_text="BT2" d="M 4250.5 3681.54 L 4250.5 3677.25 M 4250.5 3681.54 L 4248.66 3681.54 L 4248.05 3681.34 L 4247.84 3681.13 L 4247.64 3680.72 L 4247.64 3680.31 L 4247.84 3679.9 L 4248.05 3679.7 L 4248.66 3679.5 M 4250.5 3679.5 L 4248.66 3679.5 L 4248.05 3679.29 L 4247.84 3679.09 L 4247.64 3678.68 L 4247.64 3678.06 L 4247.84 3677.65 L 4248.05 3677.45 L 4248.66 3677.25 L 4250.5 3677.25 M 4244.85 3681.54 L 4244.85 3677.25 M 4246.29 3681.54 L 4243.42 3681.54 M 4241.87 3680.52 L 4241.87 3680.72 L 4241.66 3681.13 L 4241.46 3681.34 L 4241.05 3681.54 L 4240.23 3681.54 L 4239.82 3681.34 L 4239.62 3681.13 L 4239.41 3680.72 L 4239.41 3680.31 L 4239.62 3679.9 L 4240.03 3679.29 L 4242.07 3677.25 L 4239.21 3677.25" fill="none"  stroke-width="0.6" c_note="note_pre" /></g><g c_partid="part_pcbtext" c_etype="" c_origin="4305,3742.5" c_rotation="0" c_mirror="0" id="gge291" locked="0" layerid="3" c_shapetype="group" display="none"><path c_fontsize="4.5" c_fontfamily="" c_text="voltage regulator" d="M 4305 3739.39 L 4306.23 3742.25 M 4307.45 3739.39 L 4306.23 3742.25 M 4309.83 3739.39 L 4309.42 3739.6 L 4309.01 3740 L 4308.8 3740.62 L 4308.8 3741.03 L 4309.01 3741.64 L 4309.42 3742.05 L 4309.83 3742.25 L 4310.44 3742.25 L 4310.85 3742.05 L 4311.26 3741.64 L 4311.46 3741.03 L 4311.46 3740.62 L 4311.26 3740 L 4310.85 3739.6 L 4310.44 3739.39 L 4309.83 3739.39 M 4312.81 3737.96 L 4312.81 3742.25 M 4314.78 3737.96 L 4314.78 3741.44 L 4314.98 3742.05 L 4315.39 3742.25 L 4315.8 3742.25 M 4314.16 3739.39 L 4315.6 3739.39 M 4319.6 3739.39 L 4319.6 3742.25 M 4319.6 3740 L 4319.2 3739.6 L 4318.79 3739.39 L 4318.17 3739.39 L 4317.76 3739.6 L 4317.35 3740 L 4317.15 3740.62 L 4317.15 3741.03 L 4317.35 3741.64 L 4317.76 3742.05 L 4318.17 3742.25 L 4318.79 3742.25 L 4319.2 3742.05 L 4319.6 3741.64 M 4323.41 3739.39 L 4323.41 3742.66 L 4323.2 3743.28 L 4323 3743.48 L 4322.59 3743.69 L 4321.98 3743.69 L 4321.57 3743.48 M 4323.41 3740 L 4323 3739.6 L 4322.59 3739.39 L 4321.98 3739.39 L 4321.57 3739.6 L 4321.16 3740 L 4320.95 3740.62 L 4320.95 3741.03 L 4321.16 3741.64 L 4321.57 3742.05 L 4321.98 3742.25 L 4322.59 3742.25 L 4323 3742.05 L 4323.41 3741.64 M 4324.76 3740.62 L 4327.21 3740.62 L 4327.21 3740.21 L 4327.01 3739.8 L 4326.8 3739.6 L 4326.4 3739.39 L 4325.78 3739.39 L 4325.37 3739.6 L 4324.96 3740 L 4324.76 3740.62 L 4324.76 3741.03 L 4324.96 3741.64 L 4325.37 3742.05 L 4325.78 3742.25 L 4326.4 3742.25 L 4326.8 3742.05 L 4327.21 3741.64 M 4331.71 3739.39 L 4331.71 3742.25 M 4331.71 3740.62 L 4331.92 3740 L 4332.33 3739.6 L 4332.74 3739.39 L 4333.35 3739.39 M 4334.7 3740.62 L 4337.15 3740.62 L 4337.15 3740.21 L 4336.95 3739.8 L 4336.75 3739.6 L 4336.34 3739.39 L 4335.72 3739.39 L 4335.31 3739.6 L 4334.9 3740 L 4334.7 3740.62 L 4334.7 3741.03 L 4334.9 3741.64 L 4335.31 3742.05 L 4335.72 3742.25 L 4336.34 3742.25 L 4336.75 3742.05 L 4337.15 3741.64 M 4340.96 3739.39 L 4340.96 3742.66 L 4340.75 3743.28 L 4340.55 3743.48 L 4340.14 3743.69 L 4339.53 3743.69 L 4339.12 3743.48 M 4340.96 3740 L 4340.55 3739.6 L 4340.14 3739.39 L 4339.53 3739.39 L 4339.12 3739.6 L 4338.71 3740 L 4338.5 3740.62 L 4338.5 3741.03 L 4338.71 3741.64 L 4339.12 3742.05 L 4339.53 3742.25 L 4340.14 3742.25 L 4340.55 3742.05 L 4340.96 3741.64 M 4342.31 3739.39 L 4342.31 3741.44 L 4342.51 3742.05 L 4342.92 3742.25 L 4343.54 3742.25 L 4343.95 3742.05 L 4344.56 3741.44 M 4344.56 3739.39 L 4344.56 3742.25 M 4345.91 3737.96 L 4345.91 3742.25 M 4349.71 3739.39 L 4349.71 3742.25 M 4349.71 3740 L 4349.3 3739.6 L 4348.9 3739.39 L 4348.28 3739.39 L 4347.87 3739.6 L 4347.46 3740 L 4347.26 3740.62 L 4347.26 3741.03 L 4347.46 3741.64 L 4347.87 3742.05 L 4348.28 3742.25 L 4348.9 3742.25 L 4349.3 3742.05 L 4349.71 3741.64 M 4351.68 3737.96 L 4351.68 3741.44 L 4351.88 3742.05 L 4352.29 3742.25 L 4352.7 3742.25 M 4351.06 3739.39 L 4352.5 3739.39 M 4355.07 3739.39 L 4354.66 3739.6 L 4354.25 3740 L 4354.05 3740.62 L 4354.05 3741.03 L 4354.25 3741.64 L 4354.66 3742.05 L 4355.07 3742.25 L 4355.69 3742.25 L 4356.1 3742.05 L 4356.5 3741.64 L 4356.71 3741.03 L 4356.71 3740.62 L 4356.5 3740 L 4356.1 3739.6 L 4355.69 3739.39 L 4355.07 3739.39 M 4358.06 3739.39 L 4358.06 3742.25 M 4358.06 3740.62 L 4358.26 3740 L 4358.67 3739.6 L 4359.08 3739.39 L 4359.7 3739.39" fill="none"  stroke-width="0.6" c_note="note_name" /></g><g c_partid="part_pcbtext" c_etype="" c_origin="4305,3749.5" c_rotation="0" c_mirror="0" id="gge293" locked="0" layerid="3" c_shapetype="group" ><path c_fontsize="4.5" c_fontfamily="" c_text="VR2" d="M 4305 3744.96 L 4306.64 3749.25 M 4308.27 3744.96 L 4306.64 3749.25 M 4309.62 3744.96 L 4309.62 3749.25 M 4309.62 3744.96 L 4311.46 3744.96 L 4312.08 3745.16 L 4312.28 3745.37 L 4312.49 3745.78 L 4312.49 3746.19 L 4312.28 3746.6 L 4312.08 3746.8 L 4311.46 3747 L 4309.62 3747 M 4311.05 3747 L 4312.49 3749.25 M 4314.04 3745.98 L 4314.04 3745.78 L 4314.25 3745.37 L 4314.45 3745.16 L 4314.86 3744.96 L 4315.68 3744.96 L 4316.09 3745.16 L 4316.29 3745.37 L 4316.5 3745.78 L 4316.5 3746.19 L 4316.29 3746.6 L 4315.88 3747.21 L 4313.84 3749.25 L 4316.7 3749.25" fill="none"  stroke-width="0.6" c_note="note_pre" /></g><path d="M 4294 3766.5 A 11.959 11.959 0 1 1 4317 3766.5" locked="0"  fill="none" stroke-width="1" c_helper_type="arc2" net="" layerid="3" id="gge295" /><polyline points="4048 3638 4048 3634 4355 3634 4355 3858 4048 3858 4048 3638" stroke-width="1"  stroke-linecap="round" fill="none" layerid="10" net="" id="gge323" locked="0" /></svg>